<svg xmlns="http://www.w3.org/2000/svg" width="276.524" height="85.545" viewBox="0 0 276.524 85.545"><defs><style>.a,.e{fill:#007bff;}.a,.b,.c{fill-rule:evenodd;}.b{fill:#fff;}.c,.d{fill:#4f5353;}</style></defs><path class="a" d="M40.261,86.943a9.968,9.968,0,0,0,3.745-1.062c4.816-4.25,0-12.752-.535-19.129C40.8,72.6,33.841,79.5,37.586,84.818c0,1.062,1.6,2.126,2.675,2.126m-19.8-6.9a4.725,4.725,0,0,0,3.745.531c6.42-1.592,6.42-11.158,8.56-17-4.816,4.25-14.446,6.907-13.911,13.284a3.78,3.78,0,0,0,1.606,3.188ZM6.551,64.631a3.612,3.612,0,0,0,3.21,2.126c6.42,1.591,10.7-7.439,16.05-11.158-6.42,1.592-16.05-.531-18.729,5.314a3.335,3.335,0,0,0-.535,3.719ZM1.2,44.967a3.78,3.78,0,0,0,1.6,3.188c4.816,4.25,12.84-1.592,19.261-2.657C15.647,43.909,8.156,37.532,2.8,41.784a3.78,3.78,0,0,0-1.6,3.183ZM5.48,24.775a4.509,4.509,0,0,0,0,3.719c2.675,5.845,12.305,4.782,18.191,6.376-4.814-4.245-8.558-13.278-14.979-12.216a4.4,4.4,0,0,0-3.21,2.126ZM19.392,8.84a4.367,4.367,0,0,0-2.14,3.188c-.535,6.907,8.56,10.1,13.376,14.346-2.14-5.845-1.6-15.409-8.026-17.534a3.386,3.386,0,0,0-3.21,0ZM38.653,1.4a4.4,4.4,0,0,0-3.21,2.126c-3.745,5.314,3.21,12.752,4.816,18.6,1.07-6.379,5.884-14.349,1.606-19.135A3.824,3.824,0,0,0,38.654,1.4Zm19.26,61.106h0c0-.531-.535-2.126,0-3.188A6.412,6.412,0,0,1,64.868,54H65.4a5.321,5.321,0,0,1-2.14-2.657,6.528,6.528,0,0,1,3.749-7.971h.535a4.634,4.634,0,0,1-3.21-1.592,5.934,5.934,0,0,1-.535-8.5h.535a4.555,4.555,0,0,1-3.745,0,6.508,6.508,0,0,1-4.28-7.439v-.531A4.634,4.634,0,0,1,53.1,26.9a5.921,5.921,0,0,1-4.679-.5,5.849,5.849,0,0,1-2.812-3.748v-.531a5.321,5.321,0,0,1-2.142,2.658,5.594,5.594,0,0,1-8.56-.531v-.531a6.7,6.7,0,0,1-.535,3.188,5.921,5.921,0,0,1-3.177,3.638,5.987,5.987,0,0,1-4.848.081h-.535c1.07,1.062-.535,9.564-3.745,10.1l-.534-.527a6.4,6.4,0,0,1,2.675,2.657,5.985,5.985,0,0,1-1.6,8.5H22.07a6.826,6.826,0,0,1,3.21.531,6.66,6.66,0,0,1,2.672,8.5l-.535.531a7.639,7.639,0,0,1,3.21-1.062A6.07,6.07,0,0,1,34.933,61.8a5.985,5.985,0,0,1,1.579,4.429v.531c.535-1.062,9.1-2.126,10.7.531v.531a7.515,7.515,0,0,1,1.07-3.188,6.649,6.649,0,0,1,9.63-2.126ZM60.588,84.29a6.425,6.425,0,0,0,2.675-2.657c2.14-6.376-5.885-11.69-9.63-17,.535,6.376-2.14,15.409,3.21,19.129a10.51,10.51,0,0,0,3.75.533Z" transform="translate(-1.199 -1.399)"/><path class="b" d="M23.557,41.269A17.535,17.535,0,1,0,5.9,23.734a17.287,17.287,0,0,0,5.116,12.455,17.531,17.531,0,0,0,12.541,5.08" transform="translate(19.248 19.307)"/><path class="c" d="M49.177,70.483a6.159,6.159,0,0,0,1.07-3.719c-1.07-6.377-10.7-7.439-16.05-10.627,3.745,5.314,5.35,14.878,11.77,15.409a5.762,5.762,0,0,0,3.21-1.062Zm9.63-18.6a4.638,4.638,0,0,0-.535-3.719c-3.745-5.314-12.84-1.592-19.261-2.126,5.885,3.188,11.77,10.627,17.656,7.97.536,0,1.606-1.059,2.14-2.122ZM58.272,31.16a3.533,3.533,0,0,0-2.14-2.657c-5.885-2.657-12.305,4.25-18.191,7.439,6.42,0,14.981,4.25,19.261-1.062a5.033,5.033,0,0,0,1.07-3.719ZM48.107,13.1a3.824,3.824,0,0,0-3.21-1.592c-6.42,0-8.56,9.564-12.84,14.878,5.885-2.657,15.515-3.188,16.586-9.564a4.638,4.638,0,0,0-.536-3.722ZM30.986,1.94a4.725,4.725,0,0,0-3.745.531c-5.885,3.188-3.21,12.752-4.28,18.6,3.745-5.314,12.305-10.1,10.165-16.472A11.6,11.6,0,0,0,30.986,1.94ZM15.47,43.385h-.535l-5.35-2.126a1.972,1.972,0,0,0-1.6.527c-.535.531,0,1.062.535,1.592h0l5.35,2.126h0c0,1.062,1.07,1.592,2.14,1.592s1.6-1.062,1.6-2.126h0l5.885-8.5c.535-.531,0-1.062-.535-1.592h0c-.535-.531-1.07,0-1.6.531Z" transform="translate(27.334 0.188)"/><path class="d" d="M171.994,29.913a.9.9,0,0,0,.722-.255.884.884,0,0,0,.257-.718V19.812l8.748-16.307a1.056,1.056,0,0,0,.091-.887.8.8,0,0,0-.711-.356h-5.266c-.535,0-.98.356-1.247,1.062q-2.943,5.845-4.816,9.835c-.176-.441-.444-.887-.711-1.509s-.8-1.775-1.6-3.369-1.6-3.369-2.5-5.314a1.285,1.285,0,0,0-1.161-.706h-5.462c-.359,0-.626.091-.711.356a1.056,1.056,0,0,0,.091.887l8.56,16.307v9.128a.847.847,0,0,0,.24.734.86.86,0,0,0,.739.239ZM142.278,18.66c1.247-4.341,2.054-7.269,2.5-8.863a7.926,7.926,0,0,0,.267,1.062c.176.622.444,1.684.893,3.1s.893,3.013,1.428,4.606h-5.088ZM138.26,29.913a1.069,1.069,0,0,0,1.07-.8l1.428-4.517h8.122l1.337,4.522a1.069,1.069,0,0,0,1.07.8h5.174c.359,0,.626-.091.711-.266.176-.175.176-.441.091-.8L149.057,3.149a1.069,1.069,0,0,0-1.07-.8H141.92a1.069,1.069,0,0,0-1.07.8l-8.474,25.7c-.091.356-.091.622.091.8a.881.881,0,0,0,.711.266Zm-24.076-6.291V8.558a8.543,8.543,0,0,0,1.247-.091c.711,0,1.161-.091,1.519-.091,4.371,0,6.51,2.387,6.51,7.269a7.979,7.979,0,0,1-2.766,6.907,7.353,7.353,0,0,1-4.371.973h-2.14Zm1.161,6.291a17.6,17.6,0,0,0,8.293-1.434,11.5,11.5,0,0,0,5-4.7,15.123,15.123,0,0,0,1.963-7.97,15.958,15.958,0,0,0-.626-4.782,11.228,11.228,0,0,0-4.106-6.115,12.069,12.069,0,0,0-2.943-1.684,17.574,17.574,0,0,0-6.6-.973c-2.322,0-4.638,0-7.052.091a2.9,2.9,0,0,0-1.428.266c-.267.175-.444.622-.444,1.418V29.01c0,.706.267.973.98.973h6.955Zm-13.376,0a.9.9,0,0,0,.722-.255.884.884,0,0,0,.257-.718V24.862a.884.884,0,0,0-.257-.718.9.9,0,0,0-.722-.255h-9.48V18.914h7.763a.9.9,0,0,0,.722-.255.884.884,0,0,0,.257-.718V14.052a.847.847,0,0,0-.237-.744.86.86,0,0,0-.748-.239H92.489v-4.6h8.678a.9.9,0,0,0,.723-.253.884.884,0,0,0,.26-.716V3.33a.884.884,0,0,0-.257-.718.9.9,0,0,0-.722-.255H86.775a.9.9,0,0,0-.722.255.884.884,0,0,0-.257.718v25.61a.847.847,0,0,0,.24.734.86.86,0,0,0,.739.239Zm-40.689,0A.9.9,0,0,0,62,29.658a.884.884,0,0,0,.257-.718V14.228l4.707,8.406c.176.356.535.441,1.07.441H68.3q.8,0,1.337-1.062l4.28-7.885V28.849a.847.847,0,0,0,.24.734.86.86,0,0,0,.739.239h4.908a.9.9,0,0,0,.722-.255.884.884,0,0,0,.257-.718V3.346a.884.884,0,0,0-.257-.718.9.9,0,0,0-.722-.255H75.171a1.285,1.285,0,0,0-1.161.706L68.124,13.538,62.057,2.974A1.285,1.285,0,0,0,60.9,2.268H56.257a.9.9,0,0,0-.722.255.884.884,0,0,0-.257.718V28.85c0,.706.267.973.98.973h5ZM37.205,18.66c1.247-4.341,2.054-7.269,2.5-8.863a7.928,7.928,0,0,0,.267,1.062c.176.622.444,1.684.893,3.1s.893,3.013,1.428,4.606H37.205ZM33.15,29.913a1.069,1.069,0,0,0,1.07-.8l1.425-4.523h8.122L45.1,29.117a1.069,1.069,0,0,0,1.07.8h5.174c.359,0,.626-.091.711-.266.176-.175.176-.441.091-.8l-8.23-25.7a1.069,1.069,0,0,0-1.07-.8H36.8a1.069,1.069,0,0,0-1.07.8L27.26,28.85c-.091.356-.091.622.091.8a.881.881,0,0,0,.711.266Zm-17.758.531a11.29,11.29,0,0,0,7.491-2.216,7.943,7.943,0,0,0,2.675-6.465,8.341,8.341,0,0,0-.359-2.657,5.782,5.782,0,0,0-1.161-2.04,8.1,8.1,0,0,0-1.873-1.592,18.233,18.233,0,0,0-2.675-1.418l-2.134-.983a15.673,15.673,0,0,1-2.143-1.332,2.278,2.278,0,0,1-.626-1.775,1.819,1.819,0,0,1,.888-1.679A4.272,4.272,0,0,1,17.8,7.757a11.345,11.345,0,0,1,5.442,1.418.813.813,0,0,0,.893,0c.267-.091.359-.356.359-.8V4.3a1.2,1.2,0,0,0-.626-1.153A18.442,18.442,0,0,0,16.818,1.91,10.428,10.428,0,0,0,9.952,4.037a7.616,7.616,0,0,0-2.589,6.2A9.451,9.451,0,0,0,7.8,13.069a5.993,5.993,0,0,0,1.247,2.216,10,10,0,0,0,1.787,1.592,13.248,13.248,0,0,0,2.236,1.236L15.3,19.176a5.514,5.514,0,0,1,2.14,1.328,2.074,2.074,0,0,1,.535,1.509,1.993,1.993,0,0,1-.893,1.95,5.642,5.642,0,0,1-2.766.531,12.09,12.09,0,0,1-6.068-1.95.887.887,0,0,0-.893-.175c-.262.1-.354.361-.354.8v4.25a1.2,1.2,0,0,0,.626,1.153,17.534,17.534,0,0,0,7.763,1.88Z" transform="translate(94.653 8.867)"/><path class="e" d="M330.389,29.9a.9.9,0,0,0,.722-.256.884.884,0,0,0,.257-.717V14.212l4.729,8.416c.176.356.535.441.98.441h.267q.669,0,1.337-1.062l4.195-7.8V28.835a.884.884,0,0,0,.257.718.9.9,0,0,0,.722.255h4.815a.9.9,0,0,0,.723-.255.884.884,0,0,0,.257-.718V3.4a.883.883,0,0,0-.253-.718.9.9,0,0,0-.721-.259h-4.638a1.211,1.211,0,0,0-1.161.622l-5.8,10.367-5.8-10.367a1.211,1.211,0,0,0-1.161-.622h-4.542a.9.9,0,0,0-.722.255.884.884,0,0,0-.257.718V28.9a.847.847,0,0,0,.24.734.86.86,0,0,0,.739.239h4.816Zm-22.22-5.76a4.943,4.943,0,0,1-4.195-2.126,10.249,10.249,0,0,1-1.519-5.935,10.247,10.247,0,0,1,1.519-5.935,4.864,4.864,0,0,1,4.195-2.04,4.762,4.762,0,0,1,4.018,2.04,10.041,10.041,0,0,1,1.519,5.935,10.041,10.041,0,0,1-1.519,5.935,4.433,4.433,0,0,1-4.018,2.126Zm-.251,6.291a12.175,12.175,0,0,0,6.6-1.86,12.7,12.7,0,0,0,4.638-5.228,17.432,17.432,0,0,0,1.7-7.619,16.826,16.826,0,0,0-.979-5.67A12.318,12.318,0,0,0,317.2,5.62a11.2,11.2,0,0,0-3.928-2.746,12.643,12.643,0,0,0-4.816-.973,13.559,13.559,0,0,0-5,.973,12.136,12.136,0,0,0-4.106,2.838,14.334,14.334,0,0,0-2.766,4.522,15.5,15.5,0,0,0-.979,5.845,16.8,16.8,0,0,0,.893,5.67,12.534,12.534,0,0,0,2.59,4.522,13.218,13.218,0,0,0,3.927,3.013,10.029,10.029,0,0,0,4.9,1.146Zm-21.5-.531a.9.9,0,0,0,.723-.255.884.884,0,0,0,.257-.718V8.735h5.264a.9.9,0,0,0,.721-.269.884.884,0,0,0,.243-.726V3.4a.847.847,0,0,0-.238-.738.86.86,0,0,0-.742-.24H275.416a.9.9,0,0,0-.722.255.884.884,0,0,0-.257.718V7.65a.884.884,0,0,0,.257.718.9.9,0,0,0,.722.255h5.264V28.815a.884.884,0,0,0,.257.718.9.9,0,0,0,.722.255h4.729Zm-23.822.441a10.86,10.86,0,0,0,7.4-2.216,7.891,7.891,0,0,0,2.675-6.376,8.35,8.35,0,0,0-.359-2.657,6.683,6.683,0,0,0-1.161-2.04,10.006,10.006,0,0,0-1.787-1.592,16.831,16.831,0,0,0-2.589-1.418l-2.14-.973a10.042,10.042,0,0,1-2.14-1.328,2.592,2.592,0,0,1-.626-1.684,1.94,1.94,0,0,1,.8-1.684,4.3,4.3,0,0,1,2.322-.531,11.945,11.945,0,0,1,5.35,1.322q.535.266.8,0c.267-.091.359-.356.359-.8V4.377a1.2,1.2,0,0,0-.626-1.153,17.984,17.984,0,0,0-6.955-1.238,10.176,10.176,0,0,0-6.784,2.126,7.493,7.493,0,0,0-2.5,6.115,9.445,9.445,0,0,0,.441,2.838,6.794,6.794,0,0,0,1.247,2.216,10,10,0,0,0,1.787,1.592,13.241,13.241,0,0,0,2.235,1.241l2.231,1.062a6.336,6.336,0,0,1,2.14,1.328,2.074,2.074,0,0,1,.535,1.509,2.077,2.077,0,0,1-.893,1.95,5.642,5.642,0,0,1-2.766.531,12.812,12.812,0,0,1-6.068-1.86.887.887,0,0,0-.893-.175c-.267.091-.359.356-.359.8V27.5a1.2,1.2,0,0,0,.626,1.153,18.188,18.188,0,0,0,7.667,1.684Zm-23.466.091a11.4,11.4,0,0,0,7.491-2.482,10.653,10.653,0,0,0,3.745-7,24.4,24.4,0,0,0,.267-4.078V3.4a.884.884,0,0,0-.26-.728.9.9,0,0,0-.736-.25h-4.908a.9.9,0,0,0-.722.255.884.884,0,0,0-.257.718V17.14a25.868,25.868,0,0,1-.091,3.013,3.988,3.988,0,0,1-1.3,2.95,4.046,4.046,0,0,1-3.069,1.041,4.3,4.3,0,0,1-2.943-.887,5.044,5.044,0,0,1-1.428-2.922,23.016,23.016,0,0,1-.176-3.1V3.415a.884.884,0,0,0-.253-.733.9.9,0,0,0-.736-.256h-4.816a.9.9,0,0,0-.722.256.884.884,0,0,0-.257.717V17.218c0,1.418.091,2.747.176,3.991a9.273,9.273,0,0,0,1.787,4.963,8.655,8.655,0,0,0,3.836,3.1,12.377,12.377,0,0,0,5.35,1.158Zm-22.936,0a17.344,17.344,0,0,0,7.854-1.775,1.156,1.156,0,0,0,.535-1.062V23.514q0-.664-.267-.8c-.176-.175-.359-.175-.711,0a17.584,17.584,0,0,1-6.42,1.509,5.965,5.965,0,0,1-4.729-1.95,8.853,8.853,0,0,1-1.787-6.026,11.9,11.9,0,0,1,.535-3.81,5.631,5.631,0,0,1,1.521-2.485,5.813,5.813,0,0,1,2.054-1.328,7.787,7.787,0,0,1,2.5-.441,14.8,14.8,0,0,1,6.157,1.332.537.537,0,0,0,.711-.091,1.169,1.169,0,0,0,.267-.887V4.377c0-.622-.176-.973-.626-1.062a19.271,19.271,0,0,0-7.137-1.328,12.27,12.27,0,0,0-4.018.622,11.207,11.207,0,0,0-3.567,1.779A14.4,14.4,0,0,0,206.2,7.22a13.735,13.735,0,0,0-1.873,3.991,17.547,17.547,0,0,0-.711,4.963A15.276,15.276,0,0,0,207.1,26.63a11.95,11.95,0,0,0,9.074,3.8Z" transform="translate(-103.066 46.076)"/></svg>